<svg width="100" height="100" viewBox="0 0 100 100" xmlns="http://www.w3.org/2000/svg">
    <defs>
        <linearGradient id="grad1" x1="0%" y1="0%" x2="100%" y2="100%">
            <stop offset="0%" style="stop-color:#007bff;stop-opacity:1" />
            <stop offset="100%" style="stop-color:#28a745;stop-opacity:1" />
        </linearGradient>
    </defs>
    <rect width="100" height="100" rx="15" fill="url(#grad1)"/>
    <path d="M 65.32 24.32 C 59.32 20.32 52.32 18.32 44.32 18.32 C 30.32 18.32 20.32 28.32 20.32 42.32 C 20.32 54.32 27.32 62.32 38.32 66.32 L 40.32 67.32 C 43.32 68.32 44.32 69.32 44.32 71.32 C 44.32 73.32 42.32 75.32 39.32 75.32 C 35.32 75.32 32.32 73.32 30.32 71.32 L 27.32 73.32 C 29.32 77.32 33.32 80.32 39.32 80.32 C 51.32 80.32 58.32 72.32 58.32 64.32 C 58.32 52.32 49.32 46.32 44.32 44.32 L 42.32 43.32 C 39.32 42.32 38.32 41.32 38.32 39.32 C 38.32 37.32 40.32 35.32 43.32 35.32 C 47.32 35.32 50.32 37.32 52.32 40.32 L 55.32 38.32 C 53.32 34.32 49.32 31.32 44.32 30.32" fill="white" stroke="white" stroke-width="3" stroke-linecap="round" stroke-linejoin="round"/>
</svg>
